HIERARCHY
ROOT Hips
{
 OFFSET 0.000000 0.000000 0.000000
 CHANNELS 6 Xposition Yposition Zposition Yrotation Xrotation Zrotation
 JOINT Chest
 {
  OFFSET 0.000000 9.585900 0.002600
  CHANNELS 3 Yrotation Xrotation Zrotation
  JOINT Chest2
  {
   OFFSET 0.000000 9.601200 -0.005300
   CHANNELS 3 Yrotation Xrotation Zrotation
   JOINT Chest3
   {
    OFFSET 0.000000 9.561800 0.000000
    CHANNELS 3 Yrotation Xrotation Zrotation
    JOINT Chest4
    {
     OFFSET 0.000000 9.552100 0.000000
     CHANNELS 3 Yrotation Xrotation Zrotation
     JOINT Neck
     {
      OFFSET 0.000000 14.453000 0.000000
      CHANNELS 3 Yrotation Xrotation Zrotation
      JOINT Head
      {
       OFFSET 0.000000 8.936500 -0.011300
       CHANNELS 3 Yrotation Xrotation Zrotation
       End Site
       {
        OFFSET 0.000000 17.073600 -0.006000
       }
      }
     }
     JOINT RightCollar
     {
      OFFSET -2.921100 9.558500 0.000000
      CHANNELS 3 Yrotation Xrotation Zrotation
      JOINT RightShoulder
      {
       OFFSET -13.519700 0.000000 0.000000
       CHANNELS 3 Yrotation Xrotation Zrotation
       JOINT RightElbow
       {
        OFFSET 0.000000 -29.696600 0.000000
        CHANNELS 3 Yrotation Xrotation Zrotation
        JOINT RightWrist
        {
         OFFSET 0.000000 -24.004700 0.000000
         CHANNELS 3 Yrotation Xrotation Zrotation
         End Site
         {
          OFFSET 0.000000 -17.728500 0.000000
         }
        }
       }
      }
     }
     JOINT LeftCollar
     {
      OFFSET 2.921100 9.558500 0.000000
      CHANNELS 3 Yrotation Xrotation Zrotation
      JOINT LeftShoulder
      {
       OFFSET 13.519700 0.000000 0.000000
       CHANNELS 3 Yrotation Xrotation Zrotation
       JOINT LeftElbow
       {
        OFFSET 0.000000 -29.696600 0.000000
        CHANNELS 3 Yrotation Xrotation Zrotation
        JOINT LeftWrist
        {
         OFFSET 0.000000 -24.004700 0.000000
         CHANNELS 3 Yrotation Xrotation Zrotation
         End Site
         {
          OFFSET 0.000000 -17.728500 0.000000
         }
        }
       }
      }
     }
    }
   }
  }
 }
 JOINT RightHip
 {
  OFFSET -7.771700 -0.012900 -0.001300
  CHANNELS 3 Yrotation Xrotation Zrotation
  JOINT RightKnee
  {
   OFFSET 0.000000 -40.869800 0.001200
   CHANNELS 3 Yrotation Xrotation Zrotation
   JOINT RightAnkle
   {
    OFFSET 0.000000 -39.717900 0.002100
    CHANNELS 3 Yrotation Xrotation Zrotation
    JOINT RightToe
    {
     OFFSET 0.000000 -4.965400 11.033500
     CHANNELS 3 Yrotation Xrotation Zrotation
     End Site
     {
      OFFSET 0.000000 -1.423100 5.872300
     }
    }
   }
  }
 }
 JOINT LeftHip
 {
  OFFSET 7.771700 -0.012900 -0.001300
  CHANNELS 3 Yrotation Xrotation Zrotation
  JOINT LeftKnee
  {
   OFFSET 0.000000 -40.869800 0.001200
   CHANNELS 3 Yrotation Xrotation Zrotation
   JOINT LeftAnkle
   {
    OFFSET 0.000000 -39.717900 0.002100
    CHANNELS 3 Yrotation Xrotation Zrotation
    JOINT LeftToe
    {
     OFFSET 0.000000 -4.965400 11.033500
     CHANNELS 3 Yrotation Xrotation Zrotation
     End Site
     {
      OFFSET 0.000000 -1.423100 5.872300
     }
    }
   }
  }
 }
}
MOTION
Frames: 11
Frame Time: 0.008333
-36.256222 56.361335 -5.967372 176.115687 -12.628022 -0.291815 1.568687 13.479464 0.325776 0.142589 1.119316 0.057081 0.244323 1.909413 0.105272 1.645112 12.223608 0.808747 2.271043 13.980036 1.960845 1.933005 -11.034268 1.544748 1.013099 1.539448 1.037051 -0.853974 -9.286360 -7.110602 -82.909289 -50.700804 120.049445 -15.306693 -4.084245 -9.716282 -4.975279 -0.185543 1.558980 3.461833 -12.148804 4.446280 62.890689 -46.523455 -105.097126 12.439222 -19.133964 12.632513 -2.967479 -62.119415 15.793967 -32.719839 84.266595 -35.465894 -11.111757 -18.520652 13.160411 0.217821 -0.450226 0.124200 19.716162 -57.554262 -19.742690 71.068772 70.128351 72.461039 -6.275107 -15.403745 -0.005693 0.267014 0.650158 0.102836
-36.257217 56.361198 -5.967622 176.104364 -12.616751 -0.285424 1.578639 13.471581 0.321755 0.143507 1.120525 0.060321 0.243506 1.905852 0.102588 1.642736 12.230604 0.811167 2.270563 13.976463 1.953031 1.932165 -11.025463 1.526343 1.013376 1.533001 1.033232 -0.854649 -9.285398 -7.109449 -82.930252 -50.694798 120.077548 -15.306820 -4.081525 -9.718519 -4.981483 -0.190826 1.558980 3.467606 -12.156619 4.446082 62.908732 -46.533511 -105.115613 12.450175 -19.128771 12.640658 -2.943258 -62.131992 15.781212 -32.719869 84.259292 -35.462911 -11.101296 -18.500598 13.151913 0.193857 -0.456831 0.124139 19.736656 -57.559421 -19.752511 71.057517 70.129883 72.448090 -6.278813 -15.414333 -0.003034 0.270966 0.659717 0.105944
-36.257991 56.361335 -5.968768 176.101412 -12.613800 -0.283000 1.577822 13.475494 0.319656 0.146105 1.118168 0.058729 0.243412 1.906081 0.102565 1.640931 12.234040 0.813864 2.272070 13.970060 1.948961 1.934981 -11.020192 1.515565 1.008170 1.532243 1.032662 -0.846650 -9.290546 -7.112543 -82.942468 -50.689811 120.092628 -15.305921 -4.078532 -9.721616 -4.988821 -0.194813 1.561760 3.473640 -12.175169 4.448322 62.946698 -46.540886 -105.148915 12.460415 -19.116747 12.649332 -2.930398 -62.134038 15.771562 -32.725665 84.255811 -35.471204 -11.068722 -18.487536 13.145513 0.210648 -0.425733 0.112503 19.743248 -57.559639 -19.755882 71.052695 70.130764 72.442975 -6.280832 -15.419717 -0.002549 0.268600 0.664391 0.109361
-36.258338 56.361451 -5.969344 176.095308 -12.610067 -0.283824 1.579786 13.482648 0.323021 0.146820 1.113786 0.057185 0.240133 1.914530 0.104407 1.645505 12.224030 0.811579 2.272336 13.972058 1.943328 1.937575 -11.023601 1.512658 1.010349 1.533764 1.032534 -0.853877 -9.291628 -7.112262 -82.953774 -50.686600 120.113154 -15.307292 -4.088907 -9.716587 -4.998771 -0.194706 1.564318 3.485411 -12.185921 4.445947 62.978194 -46.549438 -105.175820 12.445489 -19.119314 12.628559 -2.924997 -62.139467 15.777225 -32.771912 84.248064 -35.512590 -11.073484 -18.459585 13.123399 0.204275 -0.429548 0.122754 19.750549 -57.563827 -19.753864 71.053059 70.134436 72.444984 -6.285937 -15.423405 -0.005596 0.274584 0.665834 0.116158
-36.258935 56.361513 -5.968925 176.086434 -12.602394 -0.283977 1.587503 13.480075 0.326052 0.143508 1.118969 0.057714 0.243615 1.906911 0.102835 1.644703 12.227520 0.811994 2.274164 13.975610 1.936801 1.939565 -11.029770 1.510354 1.011421 1.548323 1.038556 -0.873014 -9.290791 -7.106667 -82.987128 -50.678215 120.167371 -15.307170 -4.105353 -9.702475 -5.006154 -0.194842 1.565911 3.495204 -12.193922 4.443727 63.004553 -46.556806 -105.199604 12.448078 -19.108679 12.630529 -2.917212 -62.146861 15.777986 -32.775002 84.241914 -35.515248 -11.045705 -18.443259 13.107877 0.202481 -0.425633 0.122990 19.762167 -57.571560 -19.753691 71.054524 70.135131 72.447404 -6.294946 -15.426567 -0.009277 0.280836 0.665722 0.123620
-36.260128 56.361701 -5.968428 176.085999 -12.595998 -0.283298 1.587360 13.479019 0.326968 0.143139 1.124517 0.059713 0.243562 1.907269 0.102908 1.644724 12.228634 0.813169 2.276725 13.973416 1.927816 1.955461 -11.023296 1.486637 1.010947 1.541955 1.033901 -0.875461 -9.283953 -7.102844 -83.004005 -50.681409 120.190180 -15.311421 -4.116124 -9.703836 -5.012204 -0.199479 1.563566 3.507166 -12.210244 4.446790 63.023632 -46.556458 -105.221507 12.449112 -19.099209 12.634111 -2.906398 -62.153539 15.767447 -32.798780 84.235800 -35.536689 -11.012865 -18.428734 13.090342 0.204190 -0.421977 0.125489 19.768728 -57.575466 -19.758432 71.038614 70.137185 72.432399 -6.297931 -15.428809 -0.010731 0.284618 0.669414 0.127165
-36.261673 56.362105 -5.968246 176.089678 -12.593226 -0.281957 1.585588 13.493679 0.330067 0.142555 1.117892 0.059099 0.244431 1.908894 0.103341 1.654791 12.249166 0.821079 2.277471 13.965452 1.910938 1.948801 -11.040649 1.482527 0.996254 1.514611 1.024509 -0.870724 -9.276767 -7.102490 -83.043902 -50.675233 120.224082 -15.316499 -4.111220 -9.708357 -5.028054 -0.223890 1.557129 3.511595 -12.223224 4.453123 63.050547 -46.560264 -105.247321 12.435359 -19.109409 12.620248 -2.894963 -62.156591 15.754160 -32.815510 84.230725 -35.548975 -11.000032 -18.414105 13.072636 0.197535 -0.427769 0.134914 19.772760 -57.575621 -19.765703 71.022860 70.136601 72.417611 -6.299698 -15.427673 -0.010097 0.285214 0.670772 0.128001
-36.263030 56.362553 -5.967709 176.087591 -12.590069 -0.281148 1.588155 13.497826 0.329777 0.143772 1.126192 0.060135 0.245005 1.903991 0.104686 1.654145 12.246652 0.820547 2.281137 13.968957 1.905374 1.952043 -11.045086 1.475427 0.997468 1.516263 1.023780 -0.867525 -9.276148 -7.102026 -83.070165 -50.672165 120.244414 -15.321256 -4.115524 -9.711579 -5.031321 -0.222637 1.557015 3.526247 -12.248332 4.471069 63.060620 -46.549346 -105.263623 12.435263 -19.114844 12.620254 -2.889247 -62.158356 15.751666 -32.803816 84.224976 -35.538160 -10.990282 -18.399437 13.063616 0.161017 -0.434789 0.134292 19.778381 -57.578073 -19.769390 71.016779 70.135122 72.411733 -6.301115 -15.426721 -0.010939 0.285006 0.671258 0.129465
-36.263085 56.363040 -5.966922 176.088732 -12.587286 -0.289291 1.591674 13.501803 0.338577 0.141088 1.121491 0.059726 0.246682 1.917236 0.104958 1.654351 12.239256 0.821413 2.283694 13.969149 1.900962 1.952101 -11.050031 1.473682 0.996537 1.515046 1.024433 -0.864530 -9.273699 -7.099871 -83.095664 -50.667388 120.262914 -15.323364 -4.113108 -9.713503 -5.036024 -0.222253 1.560195 3.534781 -12.263825 4.478023 63.068993 -46.543810 -105.272130 12.423778 -19.128405 12.620614 -2.895159 -62.158431 15.758083 -32.696018 84.224593 -35.433959 -10.958543 -18.385545 13.053062 0.212018 -0.425474 0.133574 19.772087 -57.584553 -19.758882 71.013715 70.135258 72.410317 -6.305785 -15.425049 -0.013269 0.286328 0.671045 0.132801
-36.264345 56.363466 -5.965921 176.090456 -12.583628 -0.290651 1.595627 13.504866 0.340283 0.137834 1.121735 0.061536 0.245831 1.914769 0.104276 1.656824 12.249533 0.821693 2.281528 13.957008 1.898941 1.955635 -11.049396 1.469133 0.995236 1.510537 1.023355 -0.866555 -9.279248 -7.096836 -83.104024 -50.660452 120.273559 -15.323665 -4.119669 -9.720867 -5.043943 -0.231009 1.565264 3.545886 -12.275041 4.484560 63.080261 -46.538436 -105.283489 12.407971 -19.142792 12.624359 -2.892674 -62.159675 15.761535 -32.613033 84.219348 -35.352642 -10.987736 -18.368112 13.047342 0.206102 -0.419481 0.133229 19.778908 -57.586485 -19.763366 71.000315 70.130504 72.401466 -6.319408 -15.423520 -0.017419 0.297939 0.670930 0.137777
-36.266036 56.364150 -5.966194 176.092106 -12.588001 -0.288836 1.597982 13.515353 0.338243 0.144968 1.131531 0.061100 0.242562 1.909864 0.105957 1.657926 12.254109 0.825489 2.280356 13.952568 1.892702 1.955820 -11.054194 1.462522 0.992952 1.525166 1.017039 -0.874888 -9.304538 -7.090876 -83.101283 -50.654724 120.278620 -15.320283 -4.131798 -9.728482 -5.054738 -0.244780 1.566266 3.553909 -12.280889 4.491800 63.110378 -46.541565 -105.307973 12.407080 -19.142177 12.628498 -2.877540 -62.155515 15.752173 -32.607624 84.214941 -35.344239 -11.016617 -18.345500 13.039841 0.178064 -0.407111 0.122069 19.781607 -57.580165 -19.767332 70.998148 70.128818 72.398577 -6.317250 -15.425748 -0.015060 0.294714 0.672846 0.136864
